# This file uses centimeters as units for non-parametric coordinates.

mtllib Cup.mtl
g default
v -12.117526 29.599543 -49.530613
v -12.473182 29.599543 -50.228622
v -13.027129 29.599543 -50.782570
v -13.725143 29.599543 -51.138226
v -14.498898 29.599543 -51.260780
v -15.272653 29.599543 -51.138226
v -15.970666 29.599543 -50.782570
v -16.524612 29.599543 -50.228622
v -16.880270 29.599543 -49.530613
v -17.002819 29.599543 -48.756859
v -16.880270 29.599543 -47.983101
v -16.524612 29.599543 -47.285091
v -15.970666 29.599543 -46.731140
v -15.272652 29.599543 -46.375484
v -14.498898 29.599543 -46.252934
v -13.725143 29.599543 -46.375484
v -13.027129 29.599543 -46.731140
v -12.473182 29.599543 -47.285091
v -12.117528 29.599543 -47.983101
v -11.994977 29.599543 -48.756859
v -14.498898 29.599543 -48.756859
v -11.429123 38.832577 -49.754288
v -11.519025 39.057980 -49.725079
v -11.736067 39.151344 -49.654556
v -11.887591 38.832577 -50.654079
v -11.964067 39.057980 -50.598518
v -12.148693 39.151344 -50.464378
v -12.601672 38.832577 -51.368160
v -12.657234 39.057980 -51.291687
v -12.791374 39.151344 -51.107059
v -13.501468 38.832577 -51.826630
v -13.530679 39.057980 -51.736729
v -13.601200 39.151344 -51.519684
v -14.498898 38.832577 -51.984608
v -14.498898 39.057980 -51.890079
v -14.498898 39.151344 -51.661869
v -15.496328 38.832577 -51.826630
v -15.467117 39.057980 -51.736729
v -15.396596 39.151344 -51.519684
v -16.396122 38.832577 -51.368160
v -16.340559 39.057980 -51.291687
v -16.206421 39.151344 -51.107059
v -17.110203 38.832577 -50.654079
v -17.033728 39.057980 -50.598518
v -16.849100 39.151344 -50.464378
v -17.568672 38.832577 -49.754288
v -17.478771 39.057980 -49.725079
v -17.261728 39.151344 -49.654556
v -17.726648 38.832577 -48.756859
v -17.632120 39.057980 -48.756859
v -17.403908 39.151344 -48.756859
v -17.568672 38.832577 -47.759426
v -17.478771 39.057980 -47.788635
v -17.261728 39.151344 -47.859158
v -17.110203 38.832577 -46.859634
v -17.033728 39.057980 -46.915195
v -16.849100 39.151344 -47.049335
v -16.396122 38.832577 -46.145550
v -16.340559 39.057980 -46.222023
v -16.206419 39.151344 -46.406651
v -15.496327 38.832577 -45.687080
v -15.467116 39.057980 -45.776981
v -15.396596 39.151344 -45.994026
v -14.498898 38.832577 -45.529106
v -14.498898 39.057980 -45.623634
v -14.498898 39.151344 -45.851845
v -13.501468 38.832577 -45.687080
v -13.530679 39.057980 -45.776981
v -13.601199 39.151344 -45.994026
v -12.601673 38.832577 -46.145550
v -12.657235 39.057980 -46.222023
v -12.791375 39.151344 -46.406651
v -11.887591 38.832577 -46.859634
v -11.964067 39.057980 -46.915195
v -12.148694 39.151344 -47.049335
v -11.429125 38.832577 -47.759426
v -11.519027 39.057980 -47.788635
v -11.736069 39.151344 -47.859158
v -11.271148 38.832577 -48.756859
v -11.365676 39.057980 -48.756859
v -11.593887 39.151344 -48.756859
v -12.148693 31.572283 -50.464378
v -11.736067 31.572283 -49.654579
v -14.498898 31.572285 -48.756863
v -12.791374 31.572283 -51.107059
v -13.601200 31.572283 -51.519684
v -14.498898 31.572283 -51.661869
v -15.396596 31.572283 -51.519684
v -16.206421 31.572283 -51.107059
v -16.849100 31.572283 -50.464378
v -17.261728 31.572283 -49.654579
v -17.403908 31.572283 -48.756859
v -17.261728 31.572283 -47.859135
v -16.849100 31.572283 -47.049335
v -16.206419 31.572283 -46.406651
v -15.396596 31.572283 -45.994026
v -14.498898 31.572283 -45.851845
v -13.601199 31.572283 -45.994026
v -12.791375 31.572283 -46.406651
v -12.148694 31.572283 -47.049335
v -11.736069 31.572283 -47.859158
v -11.593887 31.572283 -48.756882
v -11.887592 31.446150 -50.654083
v -11.429123 31.446150 -49.754288
v -11.271148 31.446150 -48.756863
v -11.429125 31.446150 -47.759430
v -11.887592 31.446150 -46.859634
v -12.601673 31.446150 -46.145550
v -13.501468 31.446150 -45.687080
v -14.498898 31.446150 -45.529106
v -15.496328 31.446150 -45.687080
v -16.396122 31.446150 -46.145550
v -17.110203 31.446150 -46.859634
v -17.568672 31.446150 -47.759430
v -17.726648 31.446150 -48.756863
v -17.568672 31.446150 -49.754292
v -17.110203 31.446150 -50.654083
v -16.396122 31.446150 -51.368160
v -15.496329 31.446150 -51.826630
v -14.498898 31.446150 -51.984612
v -13.501468 31.446150 -51.826630
v -12.601672 31.446150 -51.368160
vt 0.648603 0.107966
vt 0.626409 0.064408
vt 0.591842 0.029841
vt 0.548284 0.007647
vt 0.500000 -0.000000
vt 0.451716 0.007647
vt 0.408159 0.029841
vt 0.373591 0.064409
vt 0.351397 0.107966
vt 0.343750 0.156250
vt 0.351397 0.204534
vt 0.373591 0.248091
vt 0.408159 0.282659
vt 0.451716 0.304853
vt 0.500000 0.312500
vt 0.548284 0.304853
vt 0.591841 0.282659
vt 0.626409 0.248091
vt 0.648603 0.204534
vt 0.656250 0.156250
vt 0.500000 0.156250
vt 0.375000 0.312500
vt 0.387500 0.312500
vt 0.375000 0.674985
vt 0.400000 0.312500
vt 0.387500 0.674985
vt 0.412500 0.312500
vt 0.400000 0.674985
vt 0.425000 0.312500
vt 0.412500 0.674985
vt 0.437500 0.312500
vt 0.425000 0.674985
vt 0.450000 0.312500
vt 0.437500 0.674985
vt 0.462500 0.312500
vt 0.450000 0.674985
vt 0.475000 0.312500
vt 0.462500 0.674985
vt 0.487500 0.312500
vt 0.475000 0.674985
vt 0.500000 0.312500
vt 0.487500 0.674985
vt 0.512500 0.312500
vt 0.500000 0.674985
vt 0.525000 0.312500
vt 0.512500 0.674985
vt 0.537500 0.312500
vt 0.525000 0.674985
vt 0.550000 0.312500
vt 0.537500 0.674985
vt 0.562500 0.312500
vt 0.550000 0.674985
vt 0.575000 0.312500
vt 0.562500 0.674985
vt 0.587500 0.312500
vt 0.575000 0.674985
vt 0.600000 0.312500
vt 0.587500 0.674985
vt 0.612500 0.312500
vt 0.600000 0.674985
vt 0.625000 0.312500
vt 0.612500 0.674985
vt 0.613769 0.926408
vt 0.582658 0.957519
vt 0.543456 0.977494
vt 0.500000 0.984377
vt 0.456544 0.977494
vt 0.417342 0.957520
vt 0.386231 0.926408
vt 0.366256 0.887206
vt 0.359373 0.843750
vt 0.366256 0.800294
vt 0.386231 0.761092
vt 0.417342 0.729981
vt 0.456544 0.710006
vt 0.500000 0.703123
vt 0.543456 0.710006
vt 0.582658 0.729980
vt 0.613769 0.761092
vt 0.633744 0.800294
vt 0.640627 0.843750
vt 0.633744 0.887206
vt 0.500000 0.843750
vt 0.625000 0.674985
vt 0.375000 0.687500
vt 0.648603 0.892034
vt 0.625000 0.687500
vt 0.387500 0.687500
vt 0.626409 0.935591
vt 0.400000 0.687500
vt 0.591841 0.970159
vt 0.412500 0.687500
vt 0.548284 0.992353
vt 0.425000 0.687500
vt 0.500000 1.000000
vt 0.437500 0.687500
vt 0.451716 0.992353
vt 0.450000 0.687500
vt 0.408159 0.970159
vt 0.462500 0.687500
vt 0.373591 0.935591
vt 0.475000 0.687500
vt 0.351397 0.892034
vt 0.487500 0.687500
vt 0.343750 0.843750
vt 0.500000 0.687500
vt 0.351397 0.795466
vt 0.512500 0.687500
vt 0.373591 0.751909
vt 0.525000 0.687500
vt 0.408159 0.717341
vt 0.537500 0.687500
vt 0.451716 0.695147
vt 0.550000 0.687500
vt 0.500000 0.687500
vt 0.562500 0.687500
vt 0.548284 0.695147
vt 0.575000 0.687500
vt 0.591842 0.717341
vt 0.587500 0.687500
vt 0.626409 0.751908
vt 0.600000 0.687500
vt 0.648603 0.795466
vt 0.656250 0.843750
vt 0.612500 0.687500
vt 0.633744 0.887206
vt 0.613769 0.926408
vt 0.582658 0.957519
vt 0.543456 0.977494
vt 0.500000 0.984377
vt 0.456544 0.977494
vt 0.417342 0.957520
vt 0.386231 0.926408
vt 0.366256 0.887206
vt 0.359373 0.843750
vt 0.366256 0.800294
vt 0.386231 0.761092
vt 0.417342 0.729981
vt 0.456544 0.710006
vt 0.500000 0.703123
vt 0.543456 0.710006
vt 0.582658 0.729980
vt 0.613769 0.761092
vt 0.633744 0.800294
vt 0.640627 0.843750
vt 0.387500 0.384997
vt 0.375000 0.384997
vt 0.625000 0.384997
vt 0.612500 0.384997
vt 0.600000 0.384997
vt 0.587500 0.384997
vt 0.575000 0.384997
vt 0.562500 0.384997
vt 0.550000 0.384997
vt 0.537500 0.384997
vt 0.525000 0.384997
vt 0.512500 0.384997
vt 0.500000 0.384997
vt 0.487500 0.384997
vt 0.475000 0.384997
vt 0.462500 0.384997
vt 0.450000 0.384997
vt 0.437500 0.384997
vt 0.425000 0.384997
vt 0.412500 0.384997
vt 0.400000 0.384997
vn 0.000000 -1.000000 0.000002
vn 0.000000 -1.000000 0.000002
vn 0.000000 -1.000000 -0.000000
vn 0.000000 -1.000000 0.000001
vn 0.000000 -1.000000 0.000001
vn 0.000000 -1.000000 0.000000
vn 0.000000 -1.000000 0.000000
vn 0.000000 -1.000000 0.000000
vn 0.000000 -1.000000 0.000000
vn 0.000000 -1.000000 0.000000
vn 0.000000 -1.000000 0.000000
vn 0.000000 -1.000000 0.000002
vn 0.000000 -1.000000 -0.000000
vn 0.000000 -1.000000 -0.000003
vn 0.000000 -1.000000 -0.000001
vn 0.000000 -1.000000 0.000000
vn 0.000000 -1.000000 -0.000002
vn 0.000000 -1.000000 -0.000002
vn 0.000000 -1.000000 0.000000
vn 0.000000 -1.000000 -0.000004
vn 0.000000 -1.000000 -0.000004
vn 0.885462 -0.364943 -0.287704
vn 0.753218 -0.364944 -0.547247
vn 0.807093 -0.068905 -0.586389
vn 0.948796 -0.068905 -0.308282
vn 0.547246 -0.364943 -0.753219
vn 0.586387 -0.068905 -0.807095
vn 0.287708 -0.364943 -0.885461
vn 0.308285 -0.068905 -0.948795
vn -0.000000 -0.364944 -0.931030
vn 0.000000 -0.068905 -0.997623
vn -0.287708 -0.364943 -0.885461
vn -0.308286 -0.068905 -0.948795
vn -0.547246 -0.364944 -0.753218
vn -0.586388 -0.068905 -0.807095
vn -0.753217 -0.364945 -0.547248
vn -0.807093 -0.068905 -0.586390
vn -0.885462 -0.364943 -0.287704
vn -0.948796 -0.068905 -0.308283
vn -0.931030 -0.364942 0.000000
vn -0.997623 -0.068905 -0.000000
vn -0.885462 -0.364944 0.287704
vn -0.948796 -0.068905 0.308283
vn -0.753218 -0.364944 0.547246
vn -0.807095 -0.068905 0.586388
vn -0.547249 -0.364943 0.753216
vn -0.586390 -0.068905 0.807093
vn -0.287704 -0.364943 0.885462
vn -0.308282 -0.068905 0.948796
vn 0.000000 -0.364943 0.931030
vn 0.000000 -0.068905 0.997623
vn 0.287704 -0.364944 0.885462
vn 0.308282 -0.068905 0.948796
vn 0.547249 -0.364943 0.753216
vn 0.586390 -0.068905 0.807093
vn 0.753219 -0.364944 0.547246
vn 0.807095 -0.068905 0.586387
vn 0.885462 -0.364944 0.287704
vn 0.948796 -0.068905 0.308282
vn 0.931030 -0.364943 0.000001
vn 0.997623 -0.068905 0.000001
vn 0.000001 1.000000 0.000000
vn 0.000001 1.000000 0.000000
vn -0.000000 1.000000 -0.000000
vn 0.000000 1.000000 0.000000
vn 0.000000 1.000000 -0.000001
vn -0.000000 1.000000 -0.000001
vn -0.000000 1.000000 -0.000001
vn -0.000000 1.000000 -0.000001
vn -0.000001 1.000000 -0.000004
vn -0.000001 1.000000 -0.000003
vn -0.000001 1.000000 0.000000
vn -0.000001 1.000000 0.000003
vn -0.000001 1.000000 0.000003
vn -0.000000 1.000000 0.000000
vn -0.000000 1.000000 0.000001
vn 0.000000 1.000000 0.000001
vn 0.000000 1.000000 0.000001
vn 0.000000 1.000000 0.000001
vn 0.000001 1.000000 0.000001
vn 0.000001 1.000000 0.000000
vn 0.000001 1.000000 0.000000
vn 0.950991 0.011783 -0.308995
vn 0.877054 0.386741 -0.284970
vn 0.922188 0.386743 0.000000
vn 0.999931 0.011783 0.000001
vn 0.360119 0.925539 -0.117013
vn 0.360119 0.925539 -0.117013
vn 0.378652 0.925539 0.000000
vn 0.378652 0.925539 -0.000000
vn 0.306334 0.925539 -0.222569
vn 0.306334 0.925539 -0.222569
vn 0.808960 0.011783 -0.587745
vn 0.746066 0.386740 -0.542049
vn 0.222563 0.925540 -0.306335
vn 0.222563 0.925540 -0.306335
vn 0.587743 0.011783 -0.808962
vn 0.542046 0.386738 -0.746069
vn 0.117010 0.925540 -0.360116
vn 0.117010 0.925540 -0.360116
vn 0.308998 0.011783 -0.950990
vn 0.284972 0.386741 -0.877053
vn 0.000000 0.925541 -0.378648
vn 0.000000 0.925541 -0.378648
vn -0.000000 0.011783 -0.999931
vn -0.000000 0.386744 -0.922187
vn -0.117010 0.925540 -0.360117
vn -0.117010 0.925540 -0.360117
vn -0.308998 0.011783 -0.950990
vn -0.284970 0.386740 -0.877055
vn -0.222564 0.925540 -0.306335
vn -0.222564 0.925540 -0.306335
vn -0.587743 0.011783 -0.808962
vn -0.542045 0.386740 -0.746069
vn -0.306335 0.925540 -0.222565
vn -0.306335 0.925540 -0.222565
vn -0.808960 0.011783 -0.587746
vn -0.746064 0.386741 -0.542051
vn -0.360118 0.925540 -0.117008
vn -0.360118 0.925540 -0.117008
vn -0.950991 0.011783 -0.308996
vn -0.877054 0.386739 -0.284974
vn -0.378648 0.925541 0.000000
vn -0.378648 0.925541 0.000000
vn -0.999931 0.011782 0.000000
vn -0.922190 0.386736 -0.000000
vn -0.360117 0.925540 0.117008
vn -0.360117 0.925540 0.117008
vn -0.950990 0.011782 0.308996
vn -0.877054 0.386738 0.284973
vn -0.306334 0.925540 0.222564
vn -0.306334 0.925540 0.222563
vn -0.808961 0.011783 0.587744
vn -0.746065 0.386741 0.542051
vn -0.222565 0.925542 0.306327
vn -0.222565 0.925542 0.306327
vn -0.587746 0.011783 0.808960
vn -0.542047 0.386739 0.746068
vn -0.117010 0.925543 0.360110
vn -0.117011 0.925543 0.360110
vn -0.308995 0.011783 0.950991
vn -0.284972 0.386741 0.877053
vn 0.000000 0.925541 0.378648
vn 0.000000 0.925541 0.378648
vn 0.000000 0.011783 0.999931
vn 0.000000 0.386747 0.922186
vn 0.117010 0.925539 0.360120
vn 0.117010 0.925539 0.360120
vn 0.308995 0.011783 0.950991
vn 0.284971 0.386741 0.877053
vn 0.222566 0.925540 0.306335
vn 0.222566 0.925540 0.306335
vn 0.587746 0.011783 0.808960
vn 0.542048 0.386737 0.746068
vn 0.306336 0.925540 0.222561
vn 0.306336 0.925540 0.222561
vn 0.808962 0.011783 0.587743
vn 0.746067 0.386742 0.542048
vn 0.360119 0.925539 0.117009
vn 0.360120 0.925539 0.117009
vn 0.950991 0.011783 0.308995
vn 0.877052 0.386745 0.284969
vn -0.951056 -0.000001 0.309018
vn -0.809014 -0.000000 0.587789
vn -0.809014 -0.000000 0.587789
vn -0.951056 -0.000001 0.309018
vn -0.587785 0.000000 0.809018
vn -0.587785 0.000000 0.809018
vn -0.309019 0.000000 0.951056
vn -0.309019 0.000000 0.951056
vn -0.000000 0.000000 1.000000
vn -0.000000 0.000000 1.000000
vn 0.309019 0.000000 0.951056
vn 0.309019 0.000000 0.951056
vn 0.587785 0.000000 0.809017
vn 0.587785 0.000000 0.809017
vn 0.809014 -0.000000 0.587789
vn 0.809014 -0.000000 0.587789
vn 0.951057 -0.000000 0.309017
vn 0.951056 -0.000000 0.309018
vn 1.000000 -0.000000 0.000000
vn 1.000000 -0.000000 0.000000
vn 0.951057 -0.000000 -0.309017
vn 0.951056 -0.000000 -0.309018
vn 0.809014 -0.000000 -0.587789
vn 0.809014 -0.000000 -0.587789
vn 0.587787 0.000000 -0.809016
vn 0.587787 0.000000 -0.809016
vn 0.309018 0.000000 -0.951056
vn 0.309018 0.000000 -0.951056
vn 0.000000 0.000000 -1.000000
vn 0.000000 0.000000 -1.000000
vn -0.309017 0.000000 -0.951057
vn -0.309017 0.000000 -0.951057
vn -0.587787 0.000000 -0.809016
vn -0.587787 0.000000 -0.809016
vn -0.809017 0.000000 -0.587785
vn -0.809017 0.000000 -0.587785
vn -0.951057 0.000000 -0.309015
vn -0.951057 0.000000 -0.309015
vn -1.000000 -0.000000 -0.000001
vn -1.000000 -0.000000 -0.000001
s 1
g Objeto_Mesita Mesita Sala
usemtl aiStandardSurface40SG
f 2/2/1 1/1/2 21/21/3
f 3/3/4 2/2/1 21/21/3
f 4/4/5 3/3/4 21/21/3
f 5/5/6 4/4/5 21/21/3
f 6/6/7 5/5/6 21/21/3
f 7/7/8 6/6/7 21/21/3
f 8/8/9 7/7/8 21/21/3
f 9/9/10 8/8/9 21/21/3
f 10/10/11 9/9/10 21/21/3
f 11/11/12 10/10/11 21/21/3
f 12/12/13 11/11/12 21/21/3
f 13/13/14 12/12/13 21/21/3
f 14/14/15 13/13/14 21/21/3
f 15/15/16 14/14/15 21/21/3
f 16/16/17 15/15/16 21/21/3
f 17/17/18 16/16/17 21/21/3
f 18/18/19 17/17/18 21/21/3
f 19/19/20 18/18/19 21/21/3
f 20/20/21 19/19/20 21/21/3
f 1/1/2 20/20/21 21/21/3
s 2
f 1/22/22 2/23/23 103/146/24 104/147/25
f 2/23/23 3/25/26 122/166/27 103/146/24
f 3/25/26 4/27/28 121/165/29 122/166/27
f 4/27/28 5/29/30 120/164/31 121/165/29
f 5/29/30 6/31/32 119/163/33 120/164/31
f 6/31/32 7/33/34 118/162/35 119/163/33
f 7/33/34 8/35/36 117/161/37 118/162/35
f 8/35/36 9/37/38 116/160/39 117/161/37
f 9/37/38 10/39/40 115/159/41 116/160/39
f 10/39/40 11/41/42 114/158/43 115/159/41
f 11/41/42 12/43/44 113/157/45 114/158/43
f 12/43/44 13/45/46 112/156/47 113/157/45
f 13/45/46 14/47/48 111/155/49 112/156/47
f 14/47/48 15/49/50 110/154/51 111/155/49
f 15/49/50 16/51/52 109/153/53 110/154/51
f 16/51/52 17/53/54 108/152/55 109/153/53
f 17/53/54 18/55/56 107/151/57 108/152/55
f 18/55/56 19/57/58 106/150/59 107/151/57
f 19/57/58 20/59/60 105/149/61 106/150/59
f 20/59/60 1/61/22 104/148/25 105/149/61
s 3
f 83/126/62 82/127/63 84/83/64
f 82/127/63 85/128/65 84/83/64
f 85/128/65 86/129/66 84/83/64
f 86/129/66 87/130/67 84/83/64
f 87/130/67 88/131/68 84/83/64
f 88/131/68 89/132/69 84/83/64
f 89/132/69 90/133/70 84/83/64
f 90/133/70 91/134/71 84/83/64
f 91/134/71 92/135/72 84/83/64
f 92/135/72 93/136/73 84/83/64
f 93/136/73 94/137/74 84/83/64
f 94/137/74 95/138/75 84/83/64
f 95/138/75 96/139/76 84/83/64
f 96/139/76 97/140/77 84/83/64
f 97/140/77 98/141/78 84/83/64
f 98/141/78 99/142/79 84/83/64
f 99/142/79 100/143/80 84/83/64
f 100/143/80 101/144/81 84/83/64
f 101/144/81 102/145/82 84/83/64
f 102/145/82 83/126/62 84/83/64
s 2
f 22/84/83 23/87/84 80/125/85 79/62/86
s 5
f 23/86/87 24/82/88 81/81/89 80/124/90
f 24/82/88 23/86/87 26/89/91 27/63/92
s 2
f 23/85/84 22/24/83 25/26/93 26/88/94
s 5
f 27/63/92 26/89/91 29/91/95 30/64/96
s 2
f 26/88/94 25/26/93 28/28/97 29/90/98
s 5
f 30/64/96 29/91/95 32/93/99 33/65/100
s 2
f 29/90/98 28/28/97 31/30/101 32/92/102
s 5
f 33/65/100 32/93/99 35/95/103 36/66/104
s 2
f 32/92/102 31/30/101 34/32/105 35/94/106
s 5
f 36/66/104 35/95/103 38/97/107 39/67/108
s 2
f 35/94/106 34/32/105 37/34/109 38/96/110
s 5
f 39/67/108 38/97/107 41/99/111 42/68/112
s 2
f 38/96/110 37/34/109 40/36/113 41/98/114
s 5
f 42/68/112 41/99/111 44/101/115 45/69/116
s 2
f 41/98/114 40/36/113 43/38/117 44/100/118
s 5
f 45/69/116 44/101/115 47/103/119 48/70/120
s 2
f 44/100/118 43/38/117 46/40/121 47/102/122
s 5
f 48/70/120 47/103/119 50/105/123 51/71/124
s 2
f 47/102/122 46/40/121 49/42/125 50/104/126
s 5
f 51/71/124 50/105/123 53/107/127 54/72/128
s 2
f 50/104/126 49/42/125 52/44/129 53/106/130
s 5
f 54/72/128 53/107/127 56/109/131 57/73/132
s 2
f 53/106/130 52/44/129 55/46/133 56/108/134
s 5
f 57/73/132 56/109/131 59/111/135 60/74/136
s 2
f 56/108/134 55/46/133 58/48/137 59/110/138
s 5
f 60/74/136 59/111/135 62/113/139 63/75/140
s 2
f 59/110/138 58/48/137 61/50/141 62/112/142
s 5
f 63/75/140 62/113/139 65/115/143 66/76/144
s 2
f 62/112/142 61/50/141 64/52/145 65/114/146
s 5
f 66/76/144 65/115/143 68/117/147 69/77/148
s 2
f 65/114/146 64/52/145 67/54/149 68/116/150
s 5
f 69/77/148 68/117/147 71/119/151 72/78/152
s 2
f 68/116/150 67/54/149 70/56/153 71/118/154
s 5
f 72/78/152 71/119/151 74/121/155 75/79/156
s 2
f 71/118/154 70/56/153 73/58/157 74/120/158
s 5
f 75/79/156 74/121/155 77/123/159 78/80/160
s 2
f 74/120/158 73/58/157 76/60/161 77/122/162
s 5
f 78/80/160 77/123/159 80/124/90 81/81/89
s 2
f 77/122/162 76/60/161 79/62/86 80/125/85
s 6
f 24/82/163 27/63/164 82/127/165 83/126/166
f 27/63/164 30/64/167 85/128/168 82/127/165
f 30/64/167 33/65/169 86/129/170 85/128/168
f 33/65/169 36/66/171 87/130/172 86/129/170
f 36/66/171 39/67/173 88/131/174 87/130/172
f 39/67/173 42/68/175 89/132/176 88/131/174
f 42/68/175 45/69/177 90/133/178 89/132/176
f 45/69/177 48/70/179 91/134/180 90/133/178
f 48/70/179 51/71/181 92/135/182 91/134/180
f 51/71/181 54/72/183 93/136/184 92/135/182
f 54/72/183 57/73/185 94/137/186 93/136/184
f 57/73/185 60/74/187 95/138/188 94/137/186
f 60/74/187 63/75/189 96/139/190 95/138/188
f 63/75/189 66/76/191 97/140/192 96/139/190
f 66/76/191 69/77/193 98/141/194 97/140/192
f 69/77/193 72/78/195 99/142/196 98/141/194
f 72/78/195 75/79/197 100/143/198 99/142/196
f 75/79/197 78/80/199 101/144/200 100/143/198
f 78/80/199 81/81/201 102/145/202 101/144/200
f 81/81/201 24/82/163 83/126/166 102/145/202
s 2
f 104/147/25 103/146/24 25/26/93 22/24/83
f 105/149/61 104/148/25 22/84/83 79/62/86
f 106/150/59 105/149/61 79/62/86 76/60/161
f 107/151/57 106/150/59 76/60/161 73/58/157
f 108/152/55 107/151/57 73/58/157 70/56/153
f 109/153/53 108/152/55 70/56/153 67/54/149
f 110/154/51 109/153/53 67/54/149 64/52/145
f 111/155/49 110/154/51 64/52/145 61/50/141
f 112/156/47 111/155/49 61/50/141 58/48/137
f 113/157/45 112/156/47 58/48/137 55/46/133
f 114/158/43 113/157/45 55/46/133 52/44/129
f 115/159/41 114/158/43 52/44/129 49/42/125
f 116/160/39 115/159/41 49/42/125 46/40/121
f 117/161/37 116/160/39 46/40/121 43/38/117
f 118/162/35 117/161/37 43/38/117 40/36/113
f 119/163/33 118/162/35 40/36/113 37/34/109
f 120/164/31 119/163/33 37/34/109 34/32/105
f 121/165/29 120/164/31 34/32/105 31/30/101
f 122/166/27 121/165/29 31/30/101 28/28/97
f 103/146/24 122/166/27 28/28/97 25/26/93
